#!OML:ASF E:\Style4\Style4.ASF
:FULLY-SPECIFIED
:DEGREES
1856
root 0.230904 18.2556 -0.666427 9.53533 -3.72831 -0.554094
lowerback 5.09132 2.27714 -4.20731
upperback -2.76706 2.56081 -3.05858
thorax -5.78832 1.36185 -1.08732
lowerneck 2.77551 -3.14968 -6.94116
upperneck -3.8745 -3.99732 14.0283
head -1.15207 -2.18976 5.43149
rclavicle -2.67365e-014 3.49861e-014
rhumerus -83.7317 48.6469 -120.863
rradius 82.5495
rwrist -1.29686
rhand 0.769801 28.0116
rfingers 7.12502
rthumb 26.3275 -0.181116
lclavicle -2.67365e-014 3.49861e-014
lhumerus -17.6241 28.4221 15.3268
lradius 92.697
lwrist -12.2815
lhand -10.2597 36.3828
lfingers 7.12502
lthumb 15.7336 65.7632
rfemur -10.7468 7.85623 17.4232
rtibia 12.28
rfoot -9.9993 -14.853
rtoes -11.7809
lfemur -12.2612 -3.74919 -18.7619
ltibia 17.6262
lfoot -15.4426 14.0937
ltoes -15.443
1857
root 0.262481 18.2571 -0.662102 9.4908 -3.85281 -0.390567
lowerback 5.13685 2.27157 -3.84929
upperback -2.84602 2.58441 -2.88255
thorax -5.88799 1.36502 -1.11036
lowerneck 2.66009 -3.13321 -6.90427
upperneck -3.71372 -3.98711 13.9272
head -1.09032 -2.17504 5.38893
rclavicle 1.09332e-014 4.37326e-014
rhumerus -84.0011 48.7182 -120.921
rradius 82.7393
rwrist -1.32588
rhand 0.73418 28.0647
rfingers 7.12502
rthumb 26.2934 -0.133079
lclavicle 1.09332e-014 4.37326e-014
lhumerus -17.5343 28.2913 15.3336
lradius 92.617
lwrist -12.3389
lhand -10.3438 36.2495
lfingers 7.12502
lthumb 15.6525 65.6363
rfemur -10.7544 8.00305 17.1148
rtibia 12.344
rfoot -10.0264 -14.9258
rtoes -11.945
lfemur -11.9792 -3.65418 -19.0746
ltibia 17.2025
lfoot -15.2736 14.0772
ltoes -15.1574
1858
root 0.294358 18.26 -0.657165 9.41526 -3.95135 -0.222766
lowerback 5.20167 2.27163 -3.45999
upperback -2.90698 2.61711 -2.7342
thorax -5.97704 1.37021 -1.18096
lowerneck 2.62124 -3.14462 -6.90418
upperneck -3.59441 -4.01185 13.9381
head -1.04633 -2.18312 5.38964
rclavicle -9.44227e-015 -7.95139e-015
rhumerus -84.2255 48.7004 -120.928
rradius 82.9547
rwrist -1.33018
rhand 0.869558 28.1125
rfingers 7.12502
rthumb 26.423 -0.0658981
lclavicle -9.44227e-015 -7.95139e-015
lhumerus -17.4639 28.1853 15.2799
lradius 92.6136
lwrist -12.3251
lhand -10.1693 36.073
lfingers 7.12502
lthumb 15.8207 65.4466
rfemur -10.7305 8.24264 16.7967
rtibia 12.4303
rfoot -10.1172 -15.1353
rtoes -11.8067
lfemur -11.6451 -3.6143 -19.3883
ltibia 16.7573
lfoot -15.1813 14.1332
ltoes -15.2017
1859
root 0.325562 18.261 -0.653719 9.35572 -4.03115 0.0252058
lowerback 5.22395 2.2743 -3.15487
upperback -2.94403 2.64937 -2.60957
thorax -6.01954 1.37732 -1.22665
lowerneck 2.54768 -3.17098 -6.97668
upperneck -3.45926 -4.05761 14.0395
head -0.985978 -2.20077 5.42965
rclavicle -1.799e-014 -3.18055e-015
rhumerus -84.3436 48.6544 -120.825
rradius 83.1664
rwrist -1.37575
rhand 1.15182 28.0424
rfingers 7.12502
rthumb 26.6932 -0.0951819
lclavicle -1.799e-014 -3.18055e-015
lhumerus -17.3186 28.211 15.3649
lradius 92.6435
lwrist -12.1902
lhand -9.93044 35.8319
lfingers 7.12502
lthumb 16.0506 65.1871
rfemur -10.7441 8.44484 16.3971
rtibia 12.5504
rfoot -10.1977 -15.3181
rtoes -11.6579
lfemur -11.3191 -3.6076 -19.7783
ltibia 16.2712
lfoot -15.0626 14.1408
ltoes -14.9009
1860
root 0.355402 18.2589 -0.650335 9.30496 -4.13589 0.232523
lowerback 5.22604 2.266 -2.84982
upperback -2.97745 2.66955 -2.46359
thorax -6.04749 1.37872 -1.2478
lowerneck 2.47608 -3.17007 -6.9868
upperneck -3.36572 -4.06248 14.0463
head -0.945966 -2.19818 5.4305
rclavicle -4.76089e-014 2.70347e-014
rhumerus -84.5484 48.6938 -120.788
rradius 83.418
rwrist -1.48228
rhand 1.31491 27.8701
rfingers 7.12502
rthumb 26.8492 -0.243579
lclavicle -4.76089e-014 2.70347e-014
lhumerus -17.1801 28.2663 15.5625
lradius 92.6079
lwrist -12.2301
lhand -9.97494 35.7549
lfingers 7.12502
lthumb 16.0078 65.1135
rfemur -10.8045 8.58923 16.046
rtibia 12.7282
rfoot -10.3014 -15.3923
rtoes -11.6531
lfemur -10.9633 -3.55021 -20.1223
ltibia 15.7398
lfoot -14.9384 14.0414
ltoes -14.1438
1861
root 0.384658 18.2577 -0.645094 9.22819 -4.24933 0.451078
lowerback 5.23083 2.25656 -2.56727
upperback -2.99998 2.68581 -2.33523
thorax -6.06583 1.37847 -1.27417
lowerneck 2.44795 -3.16088 -6.93648
upperneck -3.33774 -4.05014 14.0086
head -0.936458 -2.1901 5.40933
rclavicle -9.39258e-015 -4.77083e-015
rhumerus -84.732 48.7355 -120.743
rradius 83.7003
rwrist -1.53358
rhand 1.30425 27.7753
rfingers 7.12502
rthumb 26.839 -0.339896
lclavicle -9.39258e-015 -4.77083e-015
lhumerus -17.0733 28.2876 15.6458
lradius 92.5624
lwrist -12.2647
lhand -9.95857 35.6987
lfingers 7.12502
lthumb 16.0235 65.0561
rfemur -10.8411 8.75301 15.6868
rtibia 12.9375
rfoot -10.4664 -15.4699
rtoes -11.6241
lfemur -10.5647 -3.52922 -20.473
ltibia 15.2133
lfoot -14.9292 13.9509
ltoes -13.2508
1862
root 0.412587 18.2599 -0.639817 9.16345 -4.38825 0.734823
lowerback 5.23629 2.26627 -2.37384
upperback -3.03649 2.71928 -2.22501
thorax -6.10295 1.38989 -1.27226
lowerneck 2.38789 -3.15131 -6.9155
upperneck -3.23716 -4.04353 14.0024
head -0.898584 -2.18216 5.4011
rclavicle 1.04362e-015 -1.82882e-014
rhumerus -84.9049 48.7222 -120.693
rradius 83.924
rwrist -1.55677
rhand 1.15665 27.7739
rfingers 7.12502
rthumb 26.6978 -0.362964
lclavicle 1.04362e-015 -1.82882e-014
lhumerus -17.014 28.236 15.6147
lradius 92.6274
lwrist -11.828
lhand -9.89107 35.5448
lfingers 7.12502
lthumb 16.0885 64.897
rfemur -10.8777 9.01576 15.2512
rtibia 13.116
rfoot -10.5919 -15.6626
rtoes -11.4164
lfemur -10.2048 -3.4921 -20.9106
ltibia 14.7109
lfoot -14.7754 14.0403
ltoes -13.2496
1863
root 0.439896 18.2618 -0.634478 9.1368 -4.52619 0.945809
lowerback 5.19136 2.26906 -2.0893
upperback -3.072 2.75347 -2.10266
thorax -6.10601 1.3982 -1.30612
lowerneck 2.38347 -3.10725 -6.83837
upperneck -3.20936 -3.98529 13.9033
head -0.899991 -2.15134 5.35696
rclavicle -1.39149e-015 -3.18055e-015
rhumerus -85.0883 48.7484 -120.668
rradius 84.1504
rwrist -1.65165
rhand 1.01614 27.7533
rfingers 7.12502
rthumb 26.5633 -0.403919
lclavicle -1.39149e-015 -3.18055e-015
lhumerus -16.9748 28.1967 15.5678
lradius 92.6785
lwrist -11.3807
lhand -9.82427 35.4992
lfingers 7.12502
lthumb 16.1529 64.8462
rfemur -10.9325 9.19132 14.9068
rtibia 13.2585
rfoot -10.662 -15.7888
rtoes -11.7215
lfemur -9.90352 -3.38728 -21.264
ltibia 14.2243
lfoot -14.5707 14.079
ltoes -13.3098
